<mxfile host="app.diagrams.net" modified="2024-06-14T05:56:22.157Z" agent="Mozilla/5.0 (X11; Linux x86_64) AppleWebKit/537.36 (KHTML, like Gecko) Chrome/125.0.0.0 Safari/537.36" etag="F6GGF1Y0t2kCIMVoA9z_" version="24.5.4" type="github">
  <diagram name="Page-1" id="M2Nk63XKN-zqkRl6sjPY">
    <mxGraphModel dx="1434" dy="703" grid="1" gridSize="10" guides="1" tooltips="1" connect="1" arrows="1" fold="1" page="1" pageScale="1" pageWidth="850" pageHeight="1100" math="0" shadow="0">
      <root>
        <mxCell id="0" />
        <mxCell id="1" parent="0" />
        <mxCell id="mCX6YHEjx0lR1q38jD8U-1" value="API Gateway" style="rounded=0;whiteSpace=wrap;html=1;" vertex="1" parent="1">
          <mxGeometry x="290" y="60" width="120" height="60" as="geometry" />
        </mxCell>
        <mxCell id="mCX6YHEjx0lR1q38jD8U-3" value="REDIS Cluster" style="rounded=0;whiteSpace=wrap;html=1;align=left;verticalAlign=top;" vertex="1" parent="1">
          <mxGeometry x="140" y="330" width="520" height="260" as="geometry" />
        </mxCell>
        <mxCell id="mCX6YHEjx0lR1q38jD8U-4" value="Client-API-EndPoint" style="rounded=0;whiteSpace=wrap;html=1;align=left;verticalAlign=top;" vertex="1" parent="1">
          <mxGeometry x="160" y="360" width="380" height="200" as="geometry" />
        </mxCell>
        <mxCell id="mCX6YHEjx0lR1q38jD8U-5" value="1 2024-006-13 12:11:12.1234" style="text;html=1;align=center;verticalAlign=middle;whiteSpace=wrap;rounded=0;" vertex="1" parent="1">
          <mxGeometry x="187" y="388" width="200" height="30" as="geometry" />
        </mxCell>
        <mxCell id="mCX6YHEjx0lR1q38jD8U-6" value="2 2024-006-13 12:12:12.1234" style="text;html=1;align=center;verticalAlign=middle;whiteSpace=wrap;rounded=0;" vertex="1" parent="1">
          <mxGeometry x="187" y="410" width="200" height="30" as="geometry" />
        </mxCell>
        <mxCell id="mCX6YHEjx0lR1q38jD8U-7" value="3 2024-006-13 12:12:12.1234" style="text;html=1;align=center;verticalAlign=middle;whiteSpace=wrap;rounded=0;" vertex="1" parent="1">
          <mxGeometry x="187" y="430" width="200" height="30" as="geometry" />
        </mxCell>
        <mxCell id="mCX6YHEjx0lR1q38jD8U-8" value="4 2024-006-13 12:12:12.1234" style="text;html=1;align=center;verticalAlign=middle;whiteSpace=wrap;rounded=0;" vertex="1" parent="1">
          <mxGeometry x="186" y="450" width="200" height="30" as="geometry" />
        </mxCell>
        <mxCell id="mCX6YHEjx0lR1q38jD8U-9" value="5 2024-006-13 12:13:12.1234" style="text;html=1;align=center;verticalAlign=middle;whiteSpace=wrap;rounded=0;" vertex="1" parent="1">
          <mxGeometry x="186" y="465" width="200" height="30" as="geometry" />
        </mxCell>
        <mxCell id="mCX6YHEjx0lR1q38jD8U-10" style="edgeStyle=orthogonalEdgeStyle;rounded=0;orthogonalLoop=1;jettySize=auto;html=1;" edge="1" parent="1" source="mCX6YHEjx0lR1q38jD8U-1" target="mCX6YHEjx0lR1q38jD8U-4">
          <mxGeometry relative="1" as="geometry" />
        </mxCell>
        <mxCell id="mCX6YHEjx0lR1q38jD8U-12" value="Sorted-Set (ZSET)" style="text;html=1;align=center;verticalAlign=middle;whiteSpace=wrap;rounded=0;" vertex="1" parent="1">
          <mxGeometry x="240" y="520" width="130" height="30" as="geometry" />
        </mxCell>
      </root>
    </mxGraphModel>
  </diagram>
</mxfile>
